<?xml version="1.0" standalone="no"?><!DOCTYPE svg PUBLIC "-//W3C//DTD SVG 1.1//EN" "http://www.w3.org/Graphics/SVG/1.1/DTD/svg11.dtd"><svg t="1565935887906" class="icon" viewBox="0 0 1024 1024" version="1.1" xmlns="http://www.w3.org/2000/svg" p-id="1154" xmlns:xlink="http://www.w3.org/1999/xlink" width="200" height="200"><defs><style type="text/css"></style></defs><path d="M950.599781 907.399375l-152.053068-162.703639c61.631686-74.226538 95.526657-166.755931 95.526657-264.159332 0-228.509391-185.949063-414.458453-414.525991-414.458453-228.507344 0-414.456407 185.916317-414.456407 414.458453 0 228.542136 185.948039 414.456407 414.491199 414.456407 59.874669-0.027629 117.617791-12.526291 171.59617-37.110199 16.040325-7.302313 23.118534-26.207895 15.816221-42.214451-7.302313-16.070001-26.305109-23.176862-42.214451-15.811104-45.687552 20.783349-94.539166 31.339776-145.233756 31.369452-193.371102 0-350.689081-157.312862-350.689081-350.690104 0-193.344496 157.317978-350.692151 350.689081-350.692151 193.407941 0 350.754572 157.317978 350.754572 350.692151 0 91.030249-34.716686 177.273473-97.719602 242.860237-12.212136 12.687974-11.797697 32.873712 0.860601 45.084824 0.954745 0.924045 2.199085 1.27504 3.284813 2.072195 0.860601 1.274016 1.302669 2.739391 2.388397 3.88754l164.901701 176.447664c6.251378 6.728238 14.765285 10.104125 23.274076 10.104125 7.813966 0 15.626909-2.835581 21.782096-8.606005C961.921641 940.427606 962.622606 920.248008 950.599781 907.399375L950.599781 907.399375zM950.599781 907.399375" p-id="1155" fill="#8a8a8a"></path></svg>